<svg xmlns="http://www.w3.org/2000/svg" width="177.795" height="35.115" viewBox="0 0 177.795 35.115">
  <g id="footer-logo" transform="translate(-188.466 -290.636)">
    <g id="Group_1" data-name="Group 1" transform="translate(188.574 290.636)">
      <path id="Path_1" data-name="Path 1" d="M192.569,291.4V312.63h-3.835V291.4Z" transform="translate(-188.734 -291.09)" fill="#fff"/>
      <path id="Path_2" data-name="Path 2" d="M222.186,312.63l-12.938-15.883V312.63h-3.835V291.4h4.38l12.921,15.883V291.4h3.835V312.63Z" transform="translate(-198.703 -291.09)" fill="#fff"/>
      <path id="Path_3" data-name="Path 3" d="M271.379,312.63h-9.152V291.4h9.152a10.821,10.821,0,0,1,4.238.838,11.047,11.047,0,0,1,3.464,2.272,10.729,10.729,0,0,1,2.332,3.376,10.347,10.347,0,0,1,.469,6.954,10.567,10.567,0,0,1-2.8,4.682,10.794,10.794,0,0,1-2.2,1.656,11.2,11.2,0,0,1-2.6,1.072A10.918,10.918,0,0,1,271.379,312.63Zm-5.317-3.737h5.317a7,7,0,0,0,2.745-.542,7.171,7.171,0,0,0,2.245-1.476,6.965,6.965,0,0,0,1.514-2.187,6.719,6.719,0,0,0,0-5.351,6.972,6.972,0,0,0-1.514-2.187,7.188,7.188,0,0,0-2.245-1.476,7,7,0,0,0-2.745-.541h-5.317Z" transform="translate(-232.66 -291.09)" fill="#fff"/>
      <path id="Path_4" data-name="Path 4" d="M335.681,291.4v12.7a8.153,8.153,0,0,1-.688,3.323,8.561,8.561,0,0,1-1.876,2.718,8.888,8.888,0,0,1-6.206,2.495h-1.7A8.886,8.886,0,0,1,319,310.135a8.568,8.568,0,0,1-1.876-2.718,8.152,8.152,0,0,1-.687-3.323V291.4h3.791v12.7a4.575,4.575,0,0,0,.392,1.879,4.914,4.914,0,0,0,1.068,1.539,5.054,5.054,0,0,0,1.58,1.04,4.894,4.894,0,0,0,1.928.383h1.7a4.97,4.97,0,0,0,3.5-1.423,5.005,5.005,0,0,0,1.056-1.539,4.568,4.568,0,0,0,.393-1.879V291.4Z" transform="translate(-265.063 -291.09)" fill="#fff"/>
      <path id="Path_5" data-name="Path 5" d="M378.08,312.472a11.614,11.614,0,0,1-1.841-.148,9.694,9.694,0,0,1-1.82-.478,10.691,10.691,0,0,1-1.754-.839,8.005,8.005,0,0,1-1.6-1.253l-1.351-1.316,2.723-2.654,1.351,1.316a4.8,4.8,0,0,0,1.557,1.051,7.163,7.163,0,0,0,1.8.5,7.386,7.386,0,0,0,1.808.032,5.835,5.835,0,0,0,1.613-.393,5.256,5.256,0,0,0,.566-.276,3.264,3.264,0,0,0,.589-.425,2.38,2.38,0,0,0,.468-.573,1.455,1.455,0,0,0,.185-.743,2.708,2.708,0,0,0-.229-1.189,1.869,1.869,0,0,0-.784-.786,5.928,5.928,0,0,0-1.5-.552q-.949-.234-2.386-.488-.806-.127-1.71-.308a14.865,14.865,0,0,1-1.8-.478,10.2,10.2,0,0,1-1.721-.754,5.674,5.674,0,0,1-1.46-1.147,5.146,5.146,0,0,1-1-1.656,6.369,6.369,0,0,1-.37-2.283,4.994,4.994,0,0,1,.974-3.015,6.8,6.8,0,0,1,2.73-2.145,10.031,10.031,0,0,1,2.593-.722,11.154,11.154,0,0,1,2.953-.032,12.386,12.386,0,0,1,3.018.764,9.85,9.85,0,0,1,2.789,1.667l1.438,1.232-2.527,2.824-1.438-1.231a6.353,6.353,0,0,0-1.776-1.062,7.507,7.507,0,0,0-1.939-.488,7.992,7.992,0,0,0-1.884.01,5.847,5.847,0,0,0-1.635.435q-.24.127-.5.287a2.658,2.658,0,0,0-.479.371,1.69,1.69,0,0,0-.349.488,1.43,1.43,0,0,0-.13.616,2.609,2.609,0,0,0,.218,1.147,1.828,1.828,0,0,0,.773.765,5.942,5.942,0,0,0,1.492.552q.937.234,2.376.467.805.149,1.721.329a15.25,15.25,0,0,1,1.819.478,9.808,9.808,0,0,1,1.722.754,5.662,5.662,0,0,1,1.449,1.157,5.414,5.414,0,0,1,1.013,1.678,6.359,6.359,0,0,1,.381,2.314A5.181,5.181,0,0,1,385.1,309.5a7.2,7.2,0,0,1-3.078,2.251,10.051,10.051,0,0,1-1.852.531A11.141,11.141,0,0,1,378.08,312.472Z" transform="translate(-296.721 -290.636)" fill="#fff"/>
      <path id="Path_6" data-name="Path 6" d="M431.174,295.133h-6.733v17.5h-3.835v-17.5h-6.733V291.4h17.3Z" transform="translate(-323.297 -291.09)" fill="#fff"/>
      <path id="Path_7" data-name="Path 7" d="M481.477,298.743a7.074,7.074,0,0,1-.414,2.42,7.2,7.2,0,0,1-1.166,2.081,7.664,7.664,0,0,1-4,2.59l5.208,6.795h-4.772l-5.012-6.54H466.6l1.46-3.737h5.883a3.643,3.643,0,0,0,1.438-.287,3.793,3.793,0,0,0,1.177-.775,3.677,3.677,0,0,0,.795-1.147,3.486,3.486,0,0,0,0-2.8,3.7,3.7,0,0,0-.794-1.147,3.791,3.791,0,0,0-1.174-.775,3.629,3.629,0,0,0-1.435-.286h-7.982v17.5h-3.835V291.4h11.81a7.607,7.607,0,0,1,5.338,2.144,7.371,7.371,0,0,1,1.612,2.336A7.049,7.049,0,0,1,481.477,298.743Z" transform="translate(-352.138 -291.09)" fill="#fff"/>
      <path id="Path_8" data-name="Path 8" d="M519.365,291.4V312.63H515.53V291.4Z" transform="translate(-384.056 -291.09)" fill="#fff"/>
      <path id="Path_9" data-name="Path 9" d="M540.6,296.449l-3.769,9.3h6.3v3.737h-7.823l-1.285,3.164h-4.14l8.65-21.255h4.14l8.65,21.255h-4.14Z" transform="translate(-392.634 -291.09)" fill="#fff"/>
      <path id="Path_10" data-name="Path 10" d="M604.461,312.63H587.182V291.4h3.835v17.5h13.444Z" transform="translate(-426.881 -291.09)" fill="#fff"/>
    </g>
    <g id="Group_2" data-name="Group 2" transform="translate(188.466 316.52)">
      <path id="Path_11" data-name="Path 11" d="M193.332,355.134l3.585,9.09h-1.511l-.96-2.471h-3.508l-.947,2.471h-1.524l3.611-9.09Zm-.628,1.651-1.51,3.9h2.97Z" transform="translate(-188.466 -355.07)" fill="#fff"/>
      <path id="Path_12" data-name="Path 12" d="M230.764,355.134h1.447v4.609c0,2.484-1.127,4.545-3.931,4.545-2.893,0-3.918-2.189-3.918-4.545v-4.609H225.8v4.609c0,1.664.6,3.252,2.484,3.252,1.908,0,2.483-1.626,2.483-3.252Z" transform="translate(-209.921 -355.07)" fill="#fff"/>
      <path id="Path_13" data-name="Path 13" d="M264.359,356.4v7.823h-1.447V356.4h-3.034v-1.268h7.5V356.4Z" transform="translate(-231.148 -355.07)" fill="#fff"/>
      <path id="Path_14" data-name="Path 14" d="M297.226,354.975a4.616,4.616,0,1,1-4.378,4.609A4.526,4.526,0,0,1,297.226,354.975Zm2.868,4.609a2.92,2.92,0,1,0-2.881,3.316A3.073,3.073,0,0,0,300.094,359.584Z" transform="translate(-250.854 -354.975)" fill="#fff"/>
      <path id="Path_15" data-name="Path 15" d="M339.188,357.682l-2.7,4.955h-.794l-2.714-4.955v6.542h-1.434v-9.09h1.536l3.009,5.556,3.008-5.556h1.536v9.09h-1.447Z" transform="translate(-273.983 -355.07)" fill="#fff"/>
      <path id="Path_16" data-name="Path 16" d="M375.107,355.134l3.585,9.09h-1.511l-.96-2.471h-3.508l-.947,2.471h-1.524l3.61-9.09Zm-.628,1.651-1.511,3.9h2.97Z" transform="translate(-297.111 -355.07)" fill="#fff"/>
      <path id="Path_17" data-name="Path 17" d="M407.66,356.4v7.823h-1.447V356.4h-3.034v-1.268h7.5V356.4Z" transform="translate(-316.797 -355.07)" fill="#fff"/>
      <path id="Path_18" data-name="Path 18" d="M438.184,355.134h1.434v9.09h-1.434Z" transform="translate(-337.719 -355.07)" fill="#fff"/>
      <path id="Path_19" data-name="Path 19" d="M463.12,354.975a4.616,4.616,0,1,1-4.378,4.609A4.526,4.526,0,0,1,463.12,354.975Zm2.868,4.609a2.921,2.921,0,1,0-2.881,3.316A3.073,3.073,0,0,0,465.988,359.584Z" transform="translate(-350.007 -354.975)" fill="#fff"/>
      <path id="Path_20" data-name="Path 20" d="M498.873,364.224h-1.434v-9.09h1.127l5.2,6.555v-6.542h1.447v9.077H504.02l-5.147-6.4Z" transform="translate(-373.135 -355.07)" fill="#fff"/>
      <path id="Path_21" data-name="Path 21" d="M562.8,356.992l-1.127.755A2.487,2.487,0,0,0,559.3,356.3a3.053,3.053,0,0,0-2.893,3.291,3.15,3.15,0,0,0,2.932,3.341,2.616,2.616,0,0,0,2.42-1.5l1.19.679a4,4,0,0,1-3.662,2.112,4.6,4.6,0,0,1-4.34-4.686,4.431,4.431,0,0,1,4.4-4.532A3.73,3.73,0,0,1,562.8,356.992Z" transform="translate(-407.505 -354.994)" fill="#fff"/>
      <path id="Path_22" data-name="Path 22" d="M594.138,354.975a4.616,4.616,0,1,1-4.378,4.609A4.526,4.526,0,0,1,594.138,354.975Zm2.868,4.609a2.921,2.921,0,1,0-2.881,3.316A3.073,3.073,0,0,0,597.007,359.584Z" transform="translate(-428.314 -354.975)" fill="#fff"/>
      <path id="Path_23" data-name="Path 23" d="M627.5,373.655h1.165v1.639H627.5Z" transform="translate(-450.872 -366.14)" fill="#fff"/>
    </g>
  </g>
</svg>
