<svg xmlns="http://www.w3.org/2000/svg" width="32" height="28.444" viewBox="0 0 32 28.444">
  <path id="Icon_awesome-house-damage" data-name="Icon awesome-house-damage" d="M16,6.387,3.859,17.095a2.57,2.57,0,0,1-.3.186V27.555a.889.889,0,0,0,.889.889h8.291L10.667,24.4l5.784-3.556-3.342-6.623,8.225,7.6-5.784,3.556,2.218,3.069h9.788a.889.889,0,0,0,.889-.889V17.283a2.592,2.592,0,0,1-.292-.178Zm15.7,6.74-3.261-2.879V2.667a.889.889,0,0,0-.889-.889H24a.889.889,0,0,0-.889.889V5.538L17.486.573a2.214,2.214,0,0,0-2.969,0L.3,13.127a.889.889,0,0,0-.067,1.256l1.189,1.323a.889.889,0,0,0,1.256.067L15.412,4.535a.89.89,0,0,1,1.176,0l12.74,11.237a.89.89,0,0,0,1.256-.067l1.189-1.323A.889.889,0,0,0,31.7,13.127Z" transform="translate(0)" fill="#fff"/>
</svg>
