<svg xmlns="http://www.w3.org/2000/svg" width="131.799" height="26.031" viewBox="0 0 131.799 26.031">
  <g id="Group_3" data-name="Group 3" transform="translate(-188.466 -290.636)">
    <g id="Group_1" data-name="Group 1" transform="translate(188.546 290.636)">
      <path id="Path_1" data-name="Path 1" d="M191.577,291.4v15.74h-2.843V291.4Z" transform="translate(-188.734 -291.169)" fill="#5c6ac4"/>
      <path id="Path_2" data-name="Path 2" d="M217.847,307.136l-9.591-11.774v11.774h-2.843V291.4h3.247l9.578,11.774V291.4h2.843v15.74Z" transform="translate(-200.439 -291.169)" fill="#5c6ac4"/>
      <path id="Path_3" data-name="Path 3" d="M269.011,307.136h-6.784V291.4h6.784a8.021,8.021,0,0,1,3.141.622,8.19,8.19,0,0,1,2.568,1.684,7.954,7.954,0,0,1,1.729,2.5,7.67,7.67,0,0,1,.347,5.155,7.833,7.833,0,0,1-2.076,3.471,8,8,0,0,1-1.631,1.228,8.3,8.3,0,0,1-1.93.795A8.093,8.093,0,0,1,269.011,307.136Zm-3.941-2.77h3.941a5.192,5.192,0,0,0,2.035-.4,5.317,5.317,0,0,0,1.664-1.094,5.164,5.164,0,0,0,1.122-1.622,4.981,4.981,0,0,0,0-3.966,5.169,5.169,0,0,0-1.122-1.621,5.329,5.329,0,0,0-1.664-1.094,5.192,5.192,0,0,0-2.035-.4H265.07Z" transform="translate(-240.309 -291.169)" fill="#5c6ac4"/>
      <path id="Path_4" data-name="Path 4" d="M330.7,291.4v9.413a6.043,6.043,0,0,1-.51,2.463,6.346,6.346,0,0,1-1.391,2.015,6.588,6.588,0,0,1-4.6,1.849h-1.262a6.587,6.587,0,0,1-4.6-1.849,6.352,6.352,0,0,1-1.391-2.015,6.043,6.043,0,0,1-.509-2.463V291.4h2.81v9.413a3.391,3.391,0,0,0,.291,1.393,3.643,3.643,0,0,0,.792,1.141,3.746,3.746,0,0,0,1.171.771,3.627,3.627,0,0,0,1.429.284h1.26a3.684,3.684,0,0,0,2.593-1.055,3.71,3.71,0,0,0,.783-1.141,3.386,3.386,0,0,0,.291-1.393V291.4Z" transform="translate(-278.355 -291.169)" fill="#5c6ac4"/>
      <path id="Path_5" data-name="Path 5" d="M375.836,306.823a8.612,8.612,0,0,1-1.365-.11,7.19,7.19,0,0,1-1.349-.354,7.927,7.927,0,0,1-1.3-.622,5.932,5.932,0,0,1-1.187-.929l-1-.976,2.019-1.967,1,.976a3.559,3.559,0,0,0,1.154.779,5.309,5.309,0,0,0,1.333.37,5.474,5.474,0,0,0,1.341.024,4.325,4.325,0,0,0,1.2-.291,3.9,3.9,0,0,0,.42-.2,2.422,2.422,0,0,0,.436-.315,1.765,1.765,0,0,0,.347-.425,1.079,1.079,0,0,0,.137-.551,2.008,2.008,0,0,0-.17-.881,1.386,1.386,0,0,0-.582-.582,4.394,4.394,0,0,0-1.114-.409q-.7-.173-1.769-.362-.6-.094-1.268-.228a11.021,11.021,0,0,1-1.333-.354,7.561,7.561,0,0,1-1.276-.559,4.206,4.206,0,0,1-1.082-.85,3.814,3.814,0,0,1-.743-1.228,4.721,4.721,0,0,1-.274-1.692,3.7,3.7,0,0,1,.722-2.235,5.043,5.043,0,0,1,2.024-1.59,7.436,7.436,0,0,1,1.922-.535,8.268,8.268,0,0,1,2.189-.024,9.179,9.179,0,0,1,2.237.567,7.3,7.3,0,0,1,2.067,1.236l1.066.913-1.874,2.093-1.066-.913a4.709,4.709,0,0,0-1.317-.787,5.565,5.565,0,0,0-1.437-.362,5.923,5.923,0,0,0-1.4.008,4.335,4.335,0,0,0-1.212.323q-.178.094-.371.213a1.972,1.972,0,0,0-.355.275,1.253,1.253,0,0,0-.259.362,1.06,1.06,0,0,0-.1.456,1.934,1.934,0,0,0,.162.85,1.355,1.355,0,0,0,.573.567,4.4,4.4,0,0,0,1.106.409q.695.174,1.761.346.6.111,1.276.244a11.311,11.311,0,0,1,1.348.354,7.271,7.271,0,0,1,1.276.559,4.2,4.2,0,0,1,1.074.858,4.013,4.013,0,0,1,.751,1.244,4.714,4.714,0,0,1,.283,1.715,3.841,3.841,0,0,1-.82,2.393,5.335,5.335,0,0,1-2.282,1.669,7.447,7.447,0,0,1-1.373.393A8.257,8.257,0,0,1,375.836,306.823Z" transform="translate(-315.525 -290.636)" fill="#5c6ac4"/>
      <path id="Path_6" data-name="Path 6" d="M426.7,294.166h-4.991v12.97h-2.843v-12.97h-4.991V291.4H426.7Z" transform="translate(-346.729 -291.169)" fill="#5c6ac4"/>
      <path id="Path_7" data-name="Path 7" d="M476.472,296.842a5.243,5.243,0,0,1-.307,1.794,5.334,5.334,0,0,1-.864,1.543,5.681,5.681,0,0,1-2.964,1.92l3.86,5.037H472.66l-3.715-4.848h-3.5l1.082-2.77h4.361a2.7,2.7,0,0,0,1.066-.213,2.812,2.812,0,0,0,.873-.574,2.726,2.726,0,0,0,.589-.85,2.584,2.584,0,0,0,0-2.078,2.746,2.746,0,0,0-.589-.85,2.81,2.81,0,0,0-.871-.575,2.69,2.69,0,0,0-1.064-.212h-5.917v12.97h-2.843V291.4h8.755a5.639,5.639,0,0,1,3.957,1.59,5.464,5.464,0,0,1,1.2,1.732A5.225,5.225,0,0,1,476.472,296.842Z" transform="translate(-380.593 -291.169)" fill="#5c6ac4"/>
      <path id="Path_8" data-name="Path 8" d="M518.373,291.4v15.74H515.53V291.4Z" transform="translate(-418.069 -291.169)" fill="#5c6ac4"/>
      <path id="Path_9" data-name="Path 9" d="M537.829,295.142l-2.794,6.895H539.7v2.77h-5.8l-.953,2.345h-3.069l6.412-15.756h3.069l6.412,15.756h-3.069Z" transform="translate(-428.14 -291.169)" fill="#5c6ac4"/>
      <path id="Path_10" data-name="Path 10" d="M599.991,307.136H587.182V291.4h2.843v12.97h9.966Z" transform="translate(-468.352 -291.169)" fill="#5c6ac4"/>
    </g>
    <g id="Group_2" data-name="Group 2" transform="translate(188.466 309.824)">
      <path id="Path_11" data-name="Path 11" d="M192.073,355.134l2.657,6.739h-1.12l-.712-1.832h-2.6l-.7,1.832h-1.129l2.677-6.739Zm-.466,1.224-1.12,2.895h2.2Z" transform="translate(-188.466 -355.087)" fill="#5c6ac4"/>
      <path id="Path_12" data-name="Path 12" d="M229.108,355.134h1.073v3.417c0,1.841-.835,3.369-2.914,3.369-2.145,0-2.9-1.623-2.9-3.369v-3.417h1.063v3.417c0,1.234.446,2.411,1.841,2.411,1.414,0,1.841-1.205,1.841-2.411Z" transform="translate(-213.657 -355.087)" fill="#5c6ac4"/>
      <path id="Path_13" data-name="Path 13" d="M263.2,356.074v5.8h-1.072v-5.8h-2.249v-.94h5.562v.94Z" transform="translate(-238.581 -355.087)" fill="#5c6ac4"/>
      <path id="Path_14" data-name="Path 14" d="M296.093,354.975a3.422,3.422,0,1,1-3.245,3.417A3.355,3.355,0,0,1,296.093,354.975Zm2.126,3.417a2.165,2.165,0,1,0-2.135,2.458A2.278,2.278,0,0,0,298.219,358.392Z" transform="translate(-261.718 -354.975)" fill="#5c6ac4"/>
      <path id="Path_15" data-name="Path 15" d="M337.211,357.023l-2,3.673h-.588l-2.012-3.673v4.85h-1.063v-6.739h1.139l2.23,4.119,2.23-4.119h1.139v6.739h-1.072Z" transform="translate(-288.874 -355.087)" fill="#5c6ac4"/>
      <path id="Path_16" data-name="Path 16" d="M373.849,355.134l2.657,6.739h-1.12l-.712-1.832h-2.6l-.7,1.832h-1.129l2.676-6.739Zm-.465,1.224-1.12,2.895h2.2Z" transform="translate(-316.03 -355.087)" fill="#5c6ac4"/>
      <path id="Path_17" data-name="Path 17" d="M406.5,356.074v5.8h-1.072v-5.8h-2.249v-.94h5.562v.94Z" transform="translate(-339.144 -355.087)" fill="#5c6ac4"/>
      <path id="Path_18" data-name="Path 18" d="M438.184,355.134h1.063v6.739h-1.063Z" transform="translate(-363.71 -355.087)" fill="#5c6ac4"/>
      <path id="Path_19" data-name="Path 19" d="M461.988,354.975a3.422,3.422,0,1,1-3.246,3.417A3.355,3.355,0,0,1,461.988,354.975Zm2.126,3.417a2.165,2.165,0,1,0-2.135,2.458A2.278,2.278,0,0,0,464.114,358.392Z" transform="translate(-378.137 -354.975)" fill="#5c6ac4"/>
      <path id="Path_20" data-name="Path 20" d="M498.5,361.873h-1.063v-6.739h.835l3.853,4.859v-4.85H503.2v6.729h-.883l-3.815-4.745Z" transform="translate(-405.293 -355.087)" fill="#5c6ac4"/>
      <path id="Path_21" data-name="Path 21" d="M560.771,356.478l-.835.56a1.843,1.843,0,0,0-1.766-1.072,2.263,2.263,0,0,0-2.145,2.439,2.335,2.335,0,0,0,2.174,2.477,1.939,1.939,0,0,0,1.794-1.11l.883.5a2.965,2.965,0,0,1-2.715,1.566,3.412,3.412,0,0,1-3.217-3.474,3.285,3.285,0,0,1,3.265-3.36A2.765,2.765,0,0,1,560.771,356.478Z" transform="translate(-445.648 -354.997)" fill="#5c6ac4"/>
      <path id="Path_22" data-name="Path 22" d="M593.006,354.975a3.422,3.422,0,1,1-3.246,3.417A3.355,3.355,0,0,1,593.006,354.975Zm2.126,3.417A2.165,2.165,0,1,0,593,360.85,2.278,2.278,0,0,0,595.132,358.392Z" transform="translate(-470.081 -354.975)" fill="#5c6ac4"/>
      <path id="Path_23" data-name="Path 23" d="M627.5,373.655h.864v1.215H627.5Z" transform="translate(-496.567 -368.084)" fill="#5c6ac4"/>
    </g>
  </g>
</svg>
